<?xml version="1.0" standalone="no"?>
<!DOCTYPE svg PUBLIC "-//W3C//DTD SVG 20010904//EN"
 "http://www.w3.org/TR/2001/REC-SVG-20010904/DTD/svg10.dtd">
<svg version="1.0" xmlns="http://www.w3.org/2000/svg"
 width="1332.000000pt" height="1332.000000pt" viewBox="0 0 1332.000000 1332.000000"
 preserveAspectRatio="xMidYMid meet">
<metadata>
Created by potrace 1.10, written by Peter Selinger 2001-2011
</metadata>
<g transform="translate(0.000000,1332.000000) scale(0.100000,-0.100000)"
fill="#000000" stroke="none">
<path d="M7230 12605 c-340 -77 -594 -354 -640 -699 -20 -147 -7 -244 57 -419
66 -180 252 -365 438 -436 33 -12 76 -29 95 -36 19 -7 43 -16 52 -19 9 -3 26
-22 38 -43 11 -21 39 -67 62 -103 22 -36 52 -85 66 -110 13 -25 31 -52 38 -60
7 -9 30 -47 50 -85 20 -39 46 -86 58 -105 22 -34 54 -88 149 -255 25 -44 105
-197 177 -340 73 -143 147 -282 165 -310 53 -80 162 -180 240 -221 164 -85
233 -99 510 -99 205 0 223 2 267 22 63 29 79 61 66 133 -10 56 -87 228 -118
265 -9 11 -30 45 -47 75 -16 30 -69 125 -118 210 -48 85 -97 171 -107 190 -11
19 -29 53 -41 75 -12 22 -38 67 -58 100 -20 33 -51 88 -69 123 -18 34 -37 65
-42 68 -5 4 -25 38 -43 76 -19 39 -41 78 -49 87 -8 9 -31 48 -51 86 -19 39
-46 88 -59 110 -13 22 -60 105 -104 185 -45 80 -86 152 -92 160 -5 8 -19 32
-30 53 l-21 38 54 112 c75 153 90 220 89 376 -1 126 -15 205 -48 281 -51 114
-104 199 -179 283 -70 79 -256 192 -369 223 -77 22 -307 27 -386 9z m310 -396
c94 -36 174 -101 218 -177 56 -96 67 -134 66 -237 -1 -81 -4 -97 -36 -165 -42
-90 -125 -181 -190 -209 -25 -11 -73 -26 -107 -35 -55 -14 -72 -14 -151 -2
-105 17 -150 38 -222 100 -85 73 -148 209 -148 316 1 57 22 148 49 202 30 63
125 151 206 192 65 33 76 35 165 36 73 0 108 -5 150 -21z"/>
<path d="M9145 11841 c-324 -12 -405 -37 -390 -120 8 -45 80 -198 148 -316 29
-49 61 -106 72 -127 64 -117 104 -186 134 -232 18 -28 43 -71 54 -96 11 -25
32 -63 47 -85 15 -22 39 -64 54 -93 15 -29 60 -109 101 -177 41 -68 75 -127
75 -130 0 -4 10 -21 22 -38 20 -28 150 -249 213 -362 12 -22 37 -65 56 -95 70
-112 97 -220 77 -314 -11 -53 -59 -159 -84 -187 -8 -8 -14 -23 -14 -32 0 -9
-5 -19 -10 -22 -6 -4 -22 -30 -37 -58 -14 -29 -36 -65 -48 -82 -13 -16 -40
-64 -60 -105 -20 -41 -43 -82 -50 -90 -7 -8 -32 -53 -55 -100 -23 -47 -49 -92
-56 -101 -8 -8 -36 -59 -64 -113 -27 -54 -54 -104 -59 -110 -5 -6 -38 -63 -73
-126 -35 -63 -77 -137 -93 -165 -15 -27 -33 -57 -39 -65 -7 -8 -18 -28 -24
-43 -7 -16 -25 -45 -41 -65 -16 -20 -46 -68 -67 -107 -21 -38 -44 -77 -51 -85
-15 -15 -163 -242 -197 -302 -36 -61 -88 -182 -109 -253 -17 -57 -21 -98 -21
-220 0 -135 3 -158 26 -230 37 -114 110 -249 199 -366 119 -157 183 -190 252
-130 34 31 112 151 166 258 17 34 35 64 40 67 5 3 26 39 46 78 21 40 43 80 50
88 7 8 27 44 46 80 18 36 41 76 50 90 25 39 98 167 142 250 21 41 46 82 54 91
8 9 29 48 48 87 18 38 38 73 44 77 6 3 28 39 47 78 20 40 41 78 48 86 11 13
72 121 122 216 14 28 33 57 41 66 8 9 32 52 54 95 22 44 49 88 59 99 10 11 26
38 37 60 16 35 53 99 112 195 8 14 30 54 49 90 19 36 44 79 56 95 11 17 31 50
44 75 12 25 47 86 77 135 62 102 137 233 177 307 15 28 34 58 42 67 8 9 45 77
82 151 l68 135 0 90 c0 67 -5 105 -21 150 -21 57 -121 244 -148 275 -7 8 -23
35 -35 60 -13 24 -30 56 -40 70 -9 14 -37 59 -60 100 -24 41 -59 101 -79 132
-20 31 -46 74 -59 95 -12 21 -38 65 -58 98 -20 33 -53 92 -73 130 -21 39 -51
93 -68 120 -66 109 -119 204 -154 276 -21 42 -54 101 -73 131 -19 30 -48 82
-63 114 -33 67 -108 178 -165 243 -39 44 -127 111 -148 111 -6 0 -21 7 -34 15
-30 20 -154 25 -411 16z"/>
<path d="M5320 11828 c-47 -4 -393 -12 -770 -17 -806 -11 -840 -14 -955 -102
-84 -63 -134 -129 -161 -212 -9 -29 -31 -77 -49 -107 -18 -30 -65 -120 -104
-200 -62 -124 -72 -150 -69 -189 5 -67 32 -83 160 -91 126 -8 1043 4 1601 21
440 13 443 13 541 -37 73 -38 122 -94 201 -234 26 -47 59 -99 72 -116 12 -17
23 -34 23 -39 0 -8 111 -189 195 -320 123 -189 210 -330 298 -486 18 -30 41
-68 53 -85 41 -58 229 -400 303 -549 91 -186 214 -340 363 -456 44 -35 135
-75 238 -107 78 -23 100 -25 257 -25 173 1 221 7 360 50 65 20 87 49 80 105
-8 59 -56 148 -250 458 -56 89 -290 479 -318 529 -14 25 -48 82 -76 126 -110
175 -183 295 -183 300 0 4 -17 32 -38 63 -21 31 -56 89 -77 127 -21 39 -53 93
-70 120 -18 28 -65 106 -105 175 -40 69 -89 151 -109 183 -20 32 -48 79 -62
105 -14 26 -44 76 -67 112 -23 36 -51 83 -63 105 -12 22 -36 63 -54 90 -39 60
-145 237 -164 274 -12 24 -44 75 -129 211 -42 66 -126 156 -166 177 -17 9 -59
24 -95 34 -57 16 -98 19 -296 17 -126 0 -268 -5 -315 -10z"/>
<path d="M2495 10521 c-33 -5 -76 -14 -95 -21 -161 -60 -252 -115 -347 -212
-102 -103 -151 -181 -195 -313 -30 -85 -31 -98 -32 -255 -1 -160 0 -168 31
-264 41 -124 105 -224 210 -327 182 -179 392 -251 661 -227 96 8 133 18 217
59 34 16 65 29 71 29 24 0 128 82 214 170 l96 97 234 8 c129 4 471 6 760 4
555 -3 539 -4 660 43 75 28 158 84 228 152 127 123 289 396 323 544 10 45 -12
97 -50 116 -79 42 -301 44 -1251 16 -431 -13 -867 -13 -891 0 -10 6 -25 23
-33 38 -21 40 -156 178 -192 195 -17 9 -36 23 -43 31 -17 20 -108 62 -201 93
-83 27 -260 38 -375 24z m281 -405 c106 -38 186 -110 239 -216 58 -114 57
-261 -1 -376 -33 -65 -129 -163 -197 -200 -47 -26 -63 -29 -170 -32 l-118 -4
-72 37 c-113 58 -196 148 -230 249 -19 57 -22 196 -6 266 12 51 58 125 119
188 43 45 123 87 195 102 54 12 190 4 241 -14z"/>
<path d="M11300 9453 c-25 -9 -59 -22 -77 -30 -17 -7 -37 -13 -45 -13 -7 0
-44 -18 -83 -40 -206 -117 -335 -292 -401 -540 -20 -77 -23 -270 -4 -340 25
-93 24 -113 -9 -169 -17 -28 -31 -55 -31 -59 0 -5 -21 -41 -46 -82 -26 -41
-63 -109 -83 -150 -21 -41 -49 -93 -63 -116 -14 -22 -43 -74 -63 -115 -20 -40
-43 -81 -50 -89 -7 -8 -22 -31 -32 -50 -29 -50 -120 -209 -145 -250 -12 -19
-77 -118 -144 -220 -155 -236 -168 -262 -201 -395 -15 -60 -19 -219 -8 -272
17 -75 102 -284 143 -352 20 -31 48 -80 64 -108 16 -29 53 -77 81 -108 50 -52
56 -55 100 -55 41 0 53 5 90 39 24 22 67 81 97 131 171 285 231 388 245 418 8
17 30 56 49 85 18 28 50 84 69 124 20 39 42 75 48 78 6 4 28 45 49 90 21 45
43 86 49 90 6 3 27 37 46 73 19 37 62 112 94 167 33 55 71 123 86 151 14 29
37 68 50 89 14 20 37 58 51 83 32 59 102 179 148 255 l35 57 73 0 c82 0 237
25 252 40 6 6 18 10 27 10 27 0 155 67 217 114 55 42 135 124 178 183 38 51
103 187 123 258 65 220 21 485 -111 681 -35 53 -182 204 -197 204 -5 0 -23 11
-39 25 -34 28 -173 87 -262 109 -84 22 -307 21 -370 -1z m324 -394 c173 -60
280 -200 293 -381 7 -102 -11 -169 -66 -254 -53 -80 -94 -117 -171 -152 -125
-57 -164 -62 -275 -38 -127 27 -256 135 -304 252 -32 78 -40 217 -18 295 29
98 115 205 199 245 103 50 113 53 198 53 62 1 102 -5 144 -20z"/>
<path d="M4555 8769 c-192 -3 -750 -11 -1240 -18 -490 -6 -976 -15 -1080 -20
-187 -9 -192 -10 -265 -44 -123 -56 -190 -140 -326 -412 -25 -49 -60 -117 -79
-150 -19 -33 -60 -109 -91 -170 -71 -138 -122 -233 -144 -265 -9 -14 -29 -51
-43 -82 -15 -31 -32 -60 -37 -63 -6 -3 -10 -14 -10 -24 0 -10 -7 -24 -15 -31
-8 -7 -32 -45 -54 -84 -35 -66 -78 -141 -126 -222 -11 -18 -33 -57 -49 -86
-16 -29 -32 -55 -36 -58 -22 -14 -149 -283 -165 -348 -36 -148 -5 -312 74
-397 28 -30 127 -178 151 -225 22 -44 121 -187 145 -210 13 -12 41 -24 62 -27
35 -4 43 -1 72 28 50 50 157 222 235 376 19 39 40 74 46 78 5 3 27 42 49 85
21 43 49 93 61 110 12 17 39 66 60 109 21 44 43 82 49 85 5 4 33 52 62 109 28
56 57 109 64 117 6 8 36 62 65 120 29 58 61 116 70 130 10 14 36 61 59 105 22
44 53 103 69 130 15 28 49 91 76 140 72 133 117 188 185 229 55 34 68 37 173
46 148 12 1117 35 1423 34 132 -1 380 -3 550 -5 324 -4 324 -4 467 42 203 67
324 164 456 368 94 145 169 350 157 427 -6 41 -10 47 -48 65 -39 17 -67 18
-382 17 -187 -1 -497 -5 -690 -9z"/>
<path d="M12059 7381 c-63 -71 -91 -109 -117 -160 -13 -26 -36 -66 -52 -91
-16 -25 -38 -63 -49 -85 -11 -22 -45 -80 -75 -130 -30 -49 -66 -110 -79 -135
-14 -25 -36 -65 -51 -90 -14 -25 -37 -67 -52 -95 -15 -27 -37 -63 -49 -80 -12
-16 -41 -65 -63 -109 -23 -43 -46 -83 -51 -90 -5 -6 -27 -45 -49 -86 -21 -41
-57 -106 -79 -145 -45 -78 -57 -99 -167 -297 -109 -199 -150 -254 -215 -296
-30 -19 -74 -41 -97 -48 -65 -19 -1688 -31 -1959 -14 -383 24 -513 8 -705 -88
-74 -37 -114 -65 -183 -131 -48 -46 -106 -111 -128 -143 -55 -81 -125 -226
-160 -330 -45 -135 -39 -164 39 -198 l47 -21 1730 6 c1852 7 1782 5 1890 56
51 24 134 103 180 174 19 28 35 55 35 59 0 4 17 35 37 69 36 60 78 137 208
377 68 127 110 202 167 300 20 36 54 96 74 135 20 38 47 83 59 100 13 16 37
59 55 95 18 36 38 72 46 81 7 8 24 34 36 56 13 23 54 93 91 155 141 233 147
244 167 305 64 196 48 336 -56 473 -30 41 -67 98 -81 125 -14 28 -35 64 -48
80 -12 17 -32 50 -45 75 -12 25 -36 63 -53 85 -95 125 -128 135 -198 56z"/>
<path d="M3108 7372 c-22 -9 -118 -102 -118 -114 0 -5 -8 -21 -19 -36 -16 -23
-83 -140 -143 -247 -9 -16 -43 -77 -76 -135 -121 -213 -182 -322 -247 -445
-27 -49 -54 -97 -60 -105 -7 -8 -32 -53 -55 -100 -24 -47 -51 -96 -60 -110
-10 -14 -38 -63 -63 -110 -25 -47 -71 -128 -101 -180 -30 -52 -72 -126 -92
-165 -20 -38 -47 -83 -59 -100 -12 -16 -35 -58 -50 -91 -30 -69 -59 -88 -150
-100 -166 -21 -343 -109 -459 -229 -57 -58 -149 -196 -172 -257 -47 -125 -57
-181 -56 -323 1 -189 33 -304 123 -442 85 -129 271 -282 389 -320 121 -38 154
-44 265 -49 99 -5 136 -2 210 15 129 29 165 43 252 102 122 82 151 109 214
192 74 98 104 156 140 276 24 82 29 113 29 211 0 129 -19 244 -54 332 l-24 59
38 72 c20 40 68 131 105 202 37 72 75 141 84 155 9 14 32 54 50 90 34 64 163
295 231 410 63 106 92 153 176 280 127 194 166 283 185 428 12 87 3 202 -23
292 -17 60 -124 279 -168 345 -15 22 -44 67 -66 99 -21 32 -50 67 -64 78 -29
21 -86 31 -112 20z m-1092 -2426 c87 -15 173 -62 236 -129 138 -146 148 -395
21 -551 -91 -113 -199 -166 -337 -166 -147 0 -266 67 -357 200 -57 85 -64 112
-64 245 1 98 2 103 39 170 46 84 74 119 128 158 56 40 115 65 179 76 73 12 74
12 155 -3z"/>
<path d="M4347 6811 c-34 -22 -69 -67 -108 -141 -16 -30 -38 -68 -49 -85 -11
-16 -34 -59 -51 -94 -17 -36 -41 -79 -54 -95 -13 -17 -41 -68 -63 -112 -23
-45 -53 -99 -68 -120 -14 -22 -43 -76 -64 -120 -20 -45 -43 -84 -49 -88 -6 -4
-32 -49 -58 -99 -25 -51 -54 -103 -65 -117 -11 -14 -33 -53 -48 -87 -16 -34
-42 -82 -60 -108 -17 -25 -45 -73 -61 -108 -17 -34 -43 -82 -59 -107 -16 -25
-42 -72 -59 -105 -17 -33 -48 -89 -70 -125 -21 -36 -64 -112 -96 -170 -32 -58
-80 -142 -106 -188 -27 -45 -49 -84 -49 -86 0 -2 -32 -60 -71 -128 -39 -67
-92 -161 -117 -208 -25 -47 -51 -92 -58 -100 -7 -8 -29 -48 -49 -88 -20 -40
-48 -90 -62 -110 -14 -20 -41 -68 -60 -107 -20 -38 -46 -84 -59 -101 -46 -60
-67 -139 -67 -254 0 -116 18 -184 70 -262 16 -24 49 -77 72 -118 24 -41 57
-94 72 -117 16 -23 29 -44 29 -48 0 -3 17 -32 37 -63 45 -70 184 -297 228
-372 17 -30 42 -71 54 -90 13 -19 55 -91 95 -160 40 -69 92 -159 116 -200 24
-41 60 -106 80 -145 60 -112 150 -267 178 -305 37 -50 170 -178 203 -195 88
-46 184 -62 277 -47 37 6 166 15 287 20 230 10 257 15 289 58 15 22 16 32 7
68 -13 53 -69 172 -120 256 -22 36 -58 97 -81 135 -23 39 -72 122 -109 186
-38 63 -83 142 -100 175 -18 32 -41 73 -52 89 -11 17 -89 147 -174 290 -85
143 -162 271 -172 285 -10 14 -43 68 -72 120 -30 52 -60 102 -68 111 -7 9 -40
68 -72 131 -76 147 -83 193 -47 298 14 41 35 87 46 102 11 15 20 32 20 38 0 6
8 23 18 38 32 47 88 144 131 227 22 44 61 116 86 160 25 44 68 125 96 180 28
55 70 132 92 170 23 39 56 101 74 138 18 37 47 88 64 113 17 24 40 66 51 92
12 26 37 70 56 97 19 28 38 59 44 70 21 46 150 251 184 294 54 68 204 350 204
385 0 4 6 22 14 39 22 47 46 181 46 251 0 118 -37 262 -100 386 -92 181 -271
392 -331 389 -8 0 -27 -9 -42 -18z"/>
<path d="M5660 4843 c-81 -9 -206 -35 -234 -50 -73 -38 -74 -81 -5 -211 29
-53 62 -113 74 -132 12 -19 41 -69 65 -110 55 -95 121 -207 198 -335 33 -55
67 -116 77 -135 10 -19 33 -60 52 -90 69 -112 189 -316 196 -333 4 -9 25 -44
47 -77 22 -32 40 -62 40 -65 0 -4 33 -61 74 -128 40 -67 84 -142 96 -167 13
-25 33 -59 46 -76 13 -17 24 -34 24 -39 0 -6 56 -105 137 -240 80 -132 126
-212 132 -225 6 -15 37 -69 156 -270 34 -58 77 -132 95 -165 18 -33 41 -71 52
-84 10 -14 27 -43 37 -66 30 -68 147 -241 181 -266 17 -13 47 -37 66 -53 23
-19 62 -36 112 -48 74 -18 101 -18 652 -7 316 7 737 9 935 6 378 -5 507 2 602
32 66 21 147 63 182 95 36 32 109 149 127 203 9 26 38 84 64 128 72 121 150
296 150 337 0 54 -41 84 -127 94 -37 4 -513 5 -1058 2 l-990 -5 -69 23 c-55
18 -79 33 -126 79 -31 31 -66 73 -77 93 -16 31 -84 147 -169 289 -119 200
-151 252 -171 279 -13 17 -23 34 -23 38 0 3 -26 48 -58 99 -32 51 -75 121 -95
157 -21 36 -72 121 -113 190 -40 69 -90 157 -110 195 -20 39 -55 102 -79 140
-23 39 -86 158 -139 265 -110 220 -156 289 -265 400 -135 136 -227 186 -419
225 -67 14 -249 18 -342 8z"/>
<path d="M10610 4316 c-90 -28 -220 -92 -275 -136 -22 -17 -69 -60 -105 -94
l-66 -64 -94 -7 c-107 -8 -1252 1 -1375 11 -91 7 -243 -9 -325 -34 -85 -26
-197 -98 -273 -176 -127 -131 -298 -421 -313 -533 -5 -43 -3 -53 20 -80 54
-64 41 -63 1230 -63 l1065 0 44 -67 c47 -72 171 -203 192 -203 6 0 20 -10 31
-22 42 -47 233 -121 362 -139 144 -20 314 11 463 86 79 40 221 148 243 186 11
18 34 49 51 68 103 115 169 368 146 561 -35 294 -193 520 -446 641 -154 73
-180 80 -350 85 -137 4 -157 2 -225 -20z m393 -405 c190 -92 281 -288 231
-497 -14 -63 -28 -91 -67 -143 -27 -35 -58 -72 -70 -82 -41 -35 -142 -76 -214
-89 -62 -10 -83 -9 -145 5 -122 27 -197 78 -270 183 -57 82 -70 126 -70 231 0
113 8 141 63 232 31 51 57 80 105 115 96 68 149 84 269 81 90 -2 107 -6 168
-36z"/>
<path d="M4505 4030 c-178 -21 -222 -39 -238 -101 -11 -44 15 -136 58 -204 18
-27 42 -70 55 -95 12 -25 28 -52 35 -60 7 -8 31 -49 53 -90 38 -71 128 -225
207 -355 72 -118 155 -261 191 -330 20 -38 45 -81 56 -95 18 -23 119 -197 191
-330 17 -30 37 -64 47 -75 9 -11 31 -49 50 -85 18 -36 38 -72 45 -80 22 -27
85 -141 85 -154 0 -6 -14 -34 -32 -62 -70 -108 -100 -228 -101 -404 0 -163 21
-254 91 -388 58 -110 200 -258 308 -320 80 -46 210 -92 264 -92 19 0 53 -5 75
-11 54 -15 236 5 333 37 224 74 445 292 506 499 10 33 22 73 27 90 5 16 12 84
15 150 5 103 3 134 -16 215 -39 166 -104 281 -227 401 -106 104 -196 160 -322
199 -88 28 -131 51 -131 72 0 5 -18 36 -40 69 -22 33 -40 63 -40 66 0 3 -17
31 -38 62 -21 31 -56 88 -77 126 -21 39 -46 79 -55 90 -9 11 -28 40 -42 65
-13 25 -49 86 -78 135 -29 50 -63 110 -75 135 -13 26 -30 52 -39 59 -9 7 -16
20 -16 29 0 8 -6 23 -14 31 -8 9 -56 99 -106 201 -51 102 -116 221 -145 265
-91 138 -201 227 -343 279 -115 41 -388 71 -517 56z m1681 -2130 c72 -34 162
-111 199 -170 74 -117 73 -325 -2 -444 -34 -53 -118 -132 -168 -157 -115 -59
-256 -62 -381 -9 -66 29 -165 129 -205 206 -33 66 -34 72 -34 183 0 112 1 118
34 181 55 106 153 196 256 232 38 14 72 17 142 14 79 -3 101 -8 159 -36z"/>
</g>
</svg>
